<svg xmlns="http://www.w3.org/2000/svg" xmlns:svg="http://www.w3.org/2000/svg" id="svg2816" width="32" height="32" version="1.1"><metadata id="metadata2821"/><g id="layer1"><rect id="rect2826" width="29.283" height="25.049" x=".362" y="6.945" style="fill:#f2f2f2;fill-opacity:1;stroke:#000;stroke-width:.52677828;stroke-miterlimit:4;stroke-opacity:1;stroke-dasharray:none"/><rect id="rect2832" width="13.978" height="4.574" x="12.756" y="9.125" style="fill:#fff;fill-opacity:1;stroke:#000;stroke-width:.31244054;stroke-miterlimit:4;stroke-opacity:1;stroke-dasharray:none"/><rect id="rect3606" width="10.983" height="5.198" x="15.253" y="25.344" ry="1.871" style="fill:#fff;fill-opacity:1;stroke:#000;stroke-width:.31244054;stroke-miterlimit:4;stroke-opacity:1;stroke-dasharray:none"/><rect id="rect2832-4" width="13.978" height="4.574" x="12.858" y="17.321" style="fill:#fff;fill-opacity:1;stroke:#000;stroke-width:.31244054;stroke-miterlimit:4;stroke-opacity:1;stroke-dasharray:none"/><text id="text3630" x="3.843" y="11.921" transform="scale(0.89460579,1.1178108)" xml:space="preserve" style="font-size:8.33174706px;font-style:normal;font-weight:400;fill:#000;fill-opacity:1;stroke:none;font-family:Bitstream Vera Sans"><tspan style="font-size:4.16587353px" id="tspan3632" x="3.843" y="11.921">blah</tspan></text><text id="text3630-4" x="3.69" y="19.746" transform="scale(0.89460579,1.1178108)" xml:space="preserve" style="font-size:8.33174706px;font-style:normal;font-weight:400;fill:#000;fill-opacity:1;stroke:none;font-family:Bitstream Vera Sans"><tspan style="font-size:4.16587353px" id="tspan3632-8" x="3.69" y="19.746">blah</tspan></text><text id="text3630-4-3" x="20.312" y="26.624" transform="scale(0.89460579,1.1178108)" xml:space="preserve" style="font-size:8.33174706px;font-style:normal;font-weight:400;fill:#000;fill-opacity:1;stroke:none;font-family:Bitstream Vera Sans"><tspan style="font-size:4.16587353px" id="tspan3632-8-8" x="20.312" y="26.624">OK</tspan></text><g id="text3720" transform="matrix(2.8032365,0,0,2.5867674,-56.735335,-13.761421)" style="font-size:8px;font-style:normal;font-weight:400;fill:#ff0;fill-opacity:1;stroke:#000;stroke-width:.21463092;stroke-miterlimit:4;stroke-opacity:1;stroke-dasharray:none;font-family:Bitstream Vera Sans"><path id="path3725" d="m 29.625042,5.5515966 0,2.046875 2.039062,0 0,0.921875 -2.039062,0 0,2.0468754 -0.929688,0 0,-2.0468754 -2.039062,0 0,-0.921875 2.039062,0 0,-2.046875 0.929688,0" style="font-weight:700;fill:#ff0;stroke:#000;stroke-width:.21463092;stroke-miterlimit:4;stroke-opacity:1;stroke-dasharray:none"/></g></g></svg>